solid ascii
  facet normal 7.071068e-001 7.071068e-001 0.000000e+000
    outer loop
      vertex   -9.817516e+001 1.248217e+002 1.684126e+000
      vertex   -9.817516e+001 1.248217e+002 6.000000e-001
      vertex   -9.877516e+001 1.254217e+002 2.284126e+000
    endloop
  endfacet
  facet normal 7.071068e-001 7.071068e-001 4.410773e-015
    outer loop
      vertex   -9.877516e+001 1.254217e+002 2.284126e+000
      vertex   -9.817516e+001 1.248217e+002 6.000000e-001
      vertex   -9.877516e+001 1.254217e+002 -6.616881e-032
    endloop
  endfacet
  facet normal 7.071068e-001 2.226856e-015 7.071068e-001
    outer loop
      vertex   -9.877516e+001 1.254217e+002 2.284126e+000
      vertex   -9.877516e+001 1.209093e+002 2.284126e+000
      vertex   -9.817516e+001 1.248217e+002 1.684126e+000
    endloop
  endfacet
  facet normal 7.071068e-001 0.000000e+000 7.071068e-001
    outer loop
      vertex   -9.817516e+001 1.248217e+002 1.684126e+000
      vertex   -9.877516e+001 1.209093e+002 2.284126e+000
      vertex   -9.817516e+001 1.215093e+002 1.684126e+000
    endloop
  endfacet
  facet normal 0.000000e+000 1.000000e+000 0.000000e+000
    outer loop
      vertex   -9.877516e+001 1.254217e+002 2.284126e+000
      vertex   -9.877516e+001 1.254217e+002 -6.616881e-032
      vertex   -1.109752e+002 1.254217e+002 2.284126e+000
    endloop
  endfacet
  facet normal 0.000000e+000 1.000000e+000 0.000000e+000
    outer loop
      vertex   -1.109752e+002 1.254217e+002 2.284126e+000
      vertex   -9.877516e+001 1.254217e+002 -6.616881e-032
      vertex   -1.109752e+002 1.254217e+002 -3.330669e-017
    endloop
  endfacet
  facet normal 7.071068e-001 0.000000e+000 -7.071068e-001
    outer loop
      vertex   -9.877516e+001 1.254217e+002 -6.616881e-032
      vertex   -9.817516e+001 1.248217e+002 6.000000e-001
      vertex   -9.877516e+001 1.209093e+002 0.000000e+000
    endloop
  endfacet
  facet normal 7.071068e-001 0.000000e+000 -7.071068e-001
    outer loop
      vertex   -9.877516e+001 1.209093e+002 0.000000e+000
      vertex   -9.817516e+001 1.248217e+002 6.000000e-001
      vertex   -9.817516e+001 1.215093e+002 6.000000e-001
    endloop
  endfacet
  facet normal 1.000000e+000 0.000000e+000 -0.000000e+000
    outer loop
      vertex   -9.817516e+001 1.248217e+002 6.000000e-001
      vertex   -9.817516e+001 1.248217e+002 1.684126e+000
      vertex   -9.817516e+001 1.215093e+002 6.000000e-001
    endloop
  endfacet
  facet normal 1.000000e+000 0.000000e+000 -0.000000e+000
    outer loop
      vertex   -9.817516e+001 1.215093e+002 6.000000e-001
      vertex   -9.817516e+001 1.248217e+002 1.684126e+000
      vertex   -9.817516e+001 1.215093e+002 1.684126e+000
    endloop
  endfacet
  facet normal 7.071068e-001 -7.071068e-001 0.000000e+000
    outer loop
      vertex   -9.877516e+001 1.209093e+002 2.284126e+000
      vertex   -9.877516e+001 1.209093e+002 0.000000e+000
      vertex   -9.817516e+001 1.215093e+002 1.684126e+000
    endloop
  endfacet
  facet normal 7.071068e-001 -7.071068e-001 0.000000e+000
    outer loop
      vertex   -9.817516e+001 1.215093e+002 1.684126e+000
      vertex   -9.877516e+001 1.209093e+002 0.000000e+000
      vertex   -9.817516e+001 1.215093e+002 6.000000e-001
    endloop
  endfacet
  facet normal 2.355019e-016 8.725881e-017 1.000000e+000
    outer loop
      vertex   -1.119752e+002 1.209093e+002 2.284126e+000
      vertex   -9.877516e+001 1.209093e+002 2.284126e+000
      vertex   -1.109752e+002 1.232997e+002 2.284126e+000
    endloop
  endfacet
  facet normal 0.000000e+000 1.857768e-016 1.000000e+000
    outer loop
      vertex   -1.119752e+002 1.232997e+002 2.284126e+000
      vertex   -1.119752e+002 1.209093e+002 2.284126e+000
      vertex   -1.109752e+002 1.232997e+002 2.284126e+000
    endloop
  endfacet
  facet normal 2.184045e-016 0.000000e+000 1.000000e+000
    outer loop
      vertex   -1.109752e+002 1.254217e+002 2.284126e+000
      vertex   -1.109752e+002 1.232997e+002 2.284126e+000
      vertex   -9.877516e+001 1.254217e+002 2.284126e+000
    endloop
  endfacet
  facet normal 2.184045e-016 6.878105e-031 1.000000e+000
    outer loop
      vertex   -9.877516e+001 1.254217e+002 2.284126e+000
      vertex   -1.109752e+002 1.232997e+002 2.284126e+000
      vertex   -9.877516e+001 1.209093e+002 2.284126e+000
    endloop
  endfacet
  facet normal -0.000000e+000 -1.000000e+000 0.000000e+000
    outer loop
      vertex   -9.877516e+001 1.209093e+002 0.000000e+000
      vertex   -9.877516e+001 1.209093e+002 2.284126e+000
      vertex   -1.119752e+002 1.209093e+002 0.000000e+000
    endloop
  endfacet
  facet normal 0.000000e+000 -1.000000e+000 0.000000e+000
    outer loop
      vertex   -1.119752e+002 1.209093e+002 0.000000e+000
      vertex   -9.877516e+001 1.209093e+002 2.284126e+000
      vertex   -1.119752e+002 1.209093e+002 2.284126e+000
    endloop
  endfacet
  facet normal 0.000000e+000 1.000000e+000 0.000000e+000
    outer loop
      vertex   -1.109752e+002 1.232997e+002 2.284126e+000
      vertex   -1.109752e+002 1.232997e+002 -7.017039e-032
      vertex   -1.119752e+002 1.232997e+002 2.284126e+000
    endloop
  endfacet
  facet normal 0.000000e+000 1.000000e+000 0.000000e+000
    outer loop
      vertex   -1.119752e+002 1.232997e+002 2.284126e+000
      vertex   -1.109752e+002 1.232997e+002 -7.017039e-032
      vertex   -1.119752e+002 1.232997e+002 1.143301e-016
    endloop
  endfacet
  facet normal -1.000000e+000 -0.000000e+000 -0.000000e+000
    outer loop
      vertex   -1.119752e+002 1.232997e+002 2.284126e+000
      vertex   -1.119752e+002 1.232997e+002 1.143301e-016
      vertex   -1.119752e+002 1.209093e+002 2.284126e+000
    endloop
  endfacet
  facet normal -1.000000e+000 0.000000e+000 -0.000000e+000
    outer loop
      vertex   -1.119752e+002 1.209093e+002 2.284126e+000
      vertex   -1.119752e+002 1.232997e+002 1.143301e-016
      vertex   -1.119752e+002 1.209093e+002 0.000000e+000
    endloop
  endfacet
  facet normal -1.000000e+000 0.000000e+000 0.000000e+000
    outer loop
      vertex   -1.109752e+002 1.232997e+002 -7.017039e-032
      vertex   -1.109752e+002 1.232997e+002 2.284126e+000
      vertex   -1.109752e+002 1.254217e+002 -3.330669e-017
    endloop
  endfacet
  facet normal -1.000000e+000 0.000000e+000 0.000000e+000
    outer loop
      vertex   -1.109752e+002 1.254217e+002 -3.330669e-017
      vertex   -1.109752e+002 1.232997e+002 2.284126e+000
      vertex   -1.109752e+002 1.254217e+002 2.284126e+000
    endloop
  endfacet
  facet normal 2.730057e-018 -1.569581e-017 -1.000000e+000
    outer loop
      vertex   -1.109752e+002 1.254217e+002 -3.330669e-017
      vertex   -9.877516e+001 1.254217e+002 -6.616881e-032
      vertex   -1.109752e+002 1.232997e+002 -7.017039e-032
    endloop
  endfacet
  facet normal 2.878515e-033 -1.466359e-032 -1.000000e+000
    outer loop
      vertex   -1.109752e+002 1.232997e+002 -7.017039e-032
      vertex   -9.877516e+001 1.254217e+002 -6.616881e-032
      vertex   -9.877516e+001 1.209093e+002 0.000000e+000
    endloop
  endfacet
  facet normal 0.000000e+000 -2.935453e-032 -1.000000e+000
    outer loop
      vertex   -1.119752e+002 1.209093e+002 0.000000e+000
      vertex   -1.109752e+002 1.232997e+002 -7.017039e-032
      vertex   -9.877516e+001 1.209093e+002 0.000000e+000
    endloop
  endfacet
  facet normal -1.143301e-016 4.782796e-017 -1.000000e+000
    outer loop
      vertex   -1.119752e+002 1.209093e+002 0.000000e+000
      vertex   -1.119752e+002 1.232997e+002 1.143301e-016
      vertex   -1.109752e+002 1.232997e+002 -7.017039e-032
    endloop
  endfacet
endsolid
